<mxfile host="app.diagrams.net" modified="2022-02-27T15:49:12.871Z" agent="5.0 (Windows NT 10.0; Win64; x64) AppleWebKit/537.36 (KHTML, like Gecko) Chrome/100.0.4867.0 Safari/537.36 Edg/100.0.1169.1" etag="bAvL0uEfLUhkg2CwLHqG" version="16.6.3" type="github">
  <diagram id="lqnxgwc_Y5H9zjoM1tWN" name="Page-1">
    <mxGraphModel dx="573" dy="374" grid="1" gridSize="10" guides="1" tooltips="1" connect="1" arrows="1" fold="1" page="1" pageScale="1" pageWidth="827" pageHeight="1169" math="0" shadow="0">
      <root>
        <mxCell id="0" />
        <mxCell id="1" parent="0" />
        <mxCell id="5bfnlRExjz7xOWMIVGDO-1" value="" style="rounded=0;whiteSpace=wrap;html=1;fontFamily=宋体;align=center;dashed=1;" vertex="1" parent="1">
          <mxGeometry x="224" y="210" width="170" height="80" as="geometry" />
        </mxCell>
        <mxCell id="vnEvSAPnZnUjCNVeLWTq-1" value="&lt;br&gt;&lt;font face=&quot;Times New Roman&quot;&gt;SQLite&lt;/font&gt;&lt;br&gt;数据库" style="strokeWidth=1;shape=mxgraph.flowchart.database;fontFamily=宋体;html=1;" parent="1" vertex="1">
          <mxGeometry x="550" y="300" width="50" height="60" as="geometry" />
        </mxCell>
        <mxCell id="vnEvSAPnZnUjCNVeLWTq-3" value="" style="rounded=0;whiteSpace=wrap;html=1;fontFamily=宋体;align=center;" parent="1" vertex="1">
          <mxGeometry x="410" y="210" width="200" height="80" as="geometry" />
        </mxCell>
        <mxCell id="vnEvSAPnZnUjCNVeLWTq-4" value="..." style="rounded=0;whiteSpace=wrap;html=1;fontFamily=Times New Roman;strokeWidth=1;" parent="1" vertex="1">
          <mxGeometry x="510" y="240" width="80" height="20" as="geometry" />
        </mxCell>
        <mxCell id="vnEvSAPnZnUjCNVeLWTq-6" value="SQLAlchemy" style="rounded=0;whiteSpace=wrap;html=1;fontFamily=Times New Roman;strokeWidth=1;" parent="1" vertex="1">
          <mxGeometry x="510" y="260" width="80" height="20" as="geometry" />
        </mxCell>
        <mxCell id="vnEvSAPnZnUjCNVeLWTq-7" value="" style="endArrow=classic;startArrow=classic;html=1;rounded=0;fontFamily=Times New Roman;startSize=4;endSize=4;" parent="1" edge="1">
          <mxGeometry width="50" height="50" relative="1" as="geometry">
            <mxPoint x="575" y="310" as="sourcePoint" />
            <mxPoint x="574.71" y="280" as="targetPoint" />
          </mxGeometry>
        </mxCell>
        <mxCell id="vnEvSAPnZnUjCNVeLWTq-10" style="edgeStyle=orthogonalEdgeStyle;rounded=0;orthogonalLoop=1;jettySize=auto;html=1;exitX=1;exitY=0.5;exitDx=0;exitDy=0;entryX=0;entryY=0.5;entryDx=0;entryDy=0;fontFamily=Times New Roman;startSize=4;endSize=4;" parent="1" source="vnEvSAPnZnUjCNVeLWTq-9" edge="1">
          <mxGeometry relative="1" as="geometry">
            <mxPoint x="410" y="250" as="targetPoint" />
          </mxGeometry>
        </mxCell>
        <mxCell id="vnEvSAPnZnUjCNVeLWTq-11" value="Gunicorn" style="edgeLabel;html=1;align=center;verticalAlign=middle;resizable=0;points=[];fontFamily=Times New Roman;" parent="vnEvSAPnZnUjCNVeLWTq-10" vertex="1" connectable="0">
          <mxGeometry x="-0.3011" relative="1" as="geometry">
            <mxPoint x="5" y="-10" as="offset" />
          </mxGeometry>
        </mxCell>
        <mxCell id="vnEvSAPnZnUjCNVeLWTq-9" value="基于&lt;font face=&quot;Times New Roman&quot;&gt;Nginx&lt;/font&gt;的&lt;br&gt;&lt;font face=&quot;Times New Roman&quot;&gt;Web&lt;/font&gt;服务器" style="rounded=0;whiteSpace=wrap;html=1;fontFamily=宋体;align=center;" parent="1" vertex="1">
          <mxGeometry x="240" y="220" width="80" height="60" as="geometry" />
        </mxCell>
        <mxCell id="vnEvSAPnZnUjCNVeLWTq-12" value="Flasgger" style="rounded=0;whiteSpace=wrap;html=1;fontFamily=Times New Roman;strokeWidth=1;" parent="1" vertex="1">
          <mxGeometry x="510" y="220" width="80" height="20" as="geometry" />
        </mxCell>
        <mxCell id="vnEvSAPnZnUjCNVeLWTq-14" value="Swagger&lt;font face=&quot;宋体&quot;&gt;文档&lt;/font&gt;" style="rounded=0;whiteSpace=wrap;html=1;fontFamily=Times New Roman;strokeWidth=1;" parent="1" vertex="1">
          <mxGeometry x="510" y="170" width="80" height="20" as="geometry" />
        </mxCell>
        <mxCell id="vnEvSAPnZnUjCNVeLWTq-15" value="" style="endArrow=classic;html=1;rounded=0;fontFamily=宋体;startSize=4;endSize=4;" parent="1" edge="1">
          <mxGeometry width="50" height="50" relative="1" as="geometry">
            <mxPoint x="550" y="220" as="sourcePoint" />
            <mxPoint x="550" y="190" as="targetPoint" />
          </mxGeometry>
        </mxCell>
        <mxCell id="vnEvSAPnZnUjCNVeLWTq-17" value="地图匹配算法&lt;br&gt;&lt;font face=&quot;Times New Roman&quot;&gt;SDK&lt;/font&gt;" style="rounded=0;whiteSpace=wrap;html=1;fontFamily=宋体;align=center;" parent="1" vertex="1">
          <mxGeometry x="410" y="310" width="100" height="50" as="geometry" />
        </mxCell>
        <mxCell id="5bfnlRExjz7xOWMIVGDO-2" value="&lt;font face=&quot;Times New Roman&quot;&gt;Docker&lt;/font&gt;&lt;font face=&quot;宋体&quot;&gt;容器&lt;/font&gt;" style="text;html=1;align=center;verticalAlign=middle;resizable=0;points=[];autosize=1;strokeColor=none;fillColor=none;" vertex="1" parent="1">
          <mxGeometry x="320" y="270" width="80" height="20" as="geometry" />
        </mxCell>
        <mxCell id="5bfnlRExjz7xOWMIVGDO-3" value="" style="endArrow=classic;html=1;rounded=0;fontFamily=宋体;startSize=4;endSize=4;" edge="1" parent="1">
          <mxGeometry width="50" height="50" relative="1" as="geometry">
            <mxPoint x="459.71000000000004" y="210" as="sourcePoint" />
            <mxPoint x="460" y="190" as="targetPoint" />
          </mxGeometry>
        </mxCell>
        <mxCell id="5bfnlRExjz7xOWMIVGDO-4" value="&lt;span style=&quot;font-size: 11px ; background-color: rgb(255 , 255 , 255)&quot;&gt;RESTful API&lt;/span&gt;" style="rounded=0;whiteSpace=wrap;html=1;fontFamily=Times New Roman;strokeWidth=1;" vertex="1" parent="1">
          <mxGeometry x="420" y="170" width="80" height="20" as="geometry" />
        </mxCell>
        <mxCell id="5bfnlRExjz7xOWMIVGDO-9" value="" style="endArrow=classic;html=1;rounded=0;fontFamily=宋体;startSize=4;endSize=4;" edge="1" parent="1">
          <mxGeometry width="50" height="50" relative="1" as="geometry">
            <mxPoint x="459.71" y="310" as="sourcePoint" />
            <mxPoint x="460" y="290" as="targetPoint" />
          </mxGeometry>
        </mxCell>
        <mxCell id="5bfnlRExjz7xOWMIVGDO-13" value="&lt;font face=&quot;Times New Roman&quot;&gt;Flask&lt;/font&gt;框架&lt;br&gt;业务逻辑" style="text;html=1;align=center;verticalAlign=middle;resizable=0;points=[];autosize=1;strokeColor=none;fillColor=none;fontFamily=宋体;" vertex="1" parent="1">
          <mxGeometry x="425" y="235" width="70" height="30" as="geometry" />
        </mxCell>
      </root>
    </mxGraphModel>
  </diagram>
</mxfile>
